<svg width="33" height="33" viewBox="0 0 33 33" fill="none" xmlns="http://www.w3.org/2000/svg">
<path d="M26.416 0.955841L32.0433 6.58158C32.4836 7.02201 32.7886 7.57917 32.9225 8.18732C33.0564 8.79548 33.0135 9.42924 32.799 10.0138L29.9217 17.8673C29.84 18.09 29.7108 18.2922 29.543 18.4598L15.9593 32.0435C15.6562 32.3467 15.2963 32.5873 14.9002 32.7514C14.5041 32.9155 14.0795 33 13.6507 33C13.222 33 12.7974 32.9155 12.4013 32.7514C12.0052 32.5873 11.6453 32.3467 11.3422 32.0435L0.955695 21.657C0.343764 21.0449 0 20.2148 0 19.3493C0 18.4837 0.343764 17.6536 0.955695 17.0415L14.5557 3.44148C14.7238 3.27353 14.9266 3.1443 15.1498 3.06284L22.987 0.198561C23.5713 -0.0151174 24.2045 -0.0573619 24.812 0.076804C25.4195 0.21097 25.976 0.515958 26.416 0.955841ZM16.6089 6.00546L3.26344 19.3493L13.6499 29.7357L26.9807 16.4066L29.734 8.89096L24.1082 3.26359L16.6089 6.00546ZM21.1525 11.8483C20.9148 11.6235 20.7245 11.3533 20.5929 11.0537C20.4613 10.7541 20.3912 10.4311 20.3865 10.104C20.3819 9.77677 20.4429 9.45197 20.566 9.14877C20.689 8.84557 20.8716 8.57011 21.1029 8.33867C21.3342 8.10724 21.6096 7.92453 21.9128 7.80134C22.2159 7.67815 22.5407 7.61699 22.8679 7.62146C23.195 7.62593 23.518 7.69595 23.8177 7.82738C24.1173 7.95881 24.3876 8.14898 24.6125 8.38665C25.045 8.85073 25.2804 9.46454 25.2692 10.0988C25.258 10.733 25.0011 11.3381 24.5525 11.7866C24.104 12.2352 23.4989 12.4921 22.8647 12.5033C22.2304 12.5145 21.6166 12.2807 21.1525 11.8483Z" fill="white"/>
</svg>
