<svg width="64" height="64" viewBox="0 0 64 64" fill="none" xmlns="http://www.w3.org/2000/svg">
<path d="M50.4305 2.82479L61.1736 13.5648C62.0141 14.4057 62.5965 15.4693 62.8521 16.6303C63.1077 17.7914 63.0259 19.0013 62.6162 20.1173L57.1232 35.1104C56.9672 35.5354 56.7206 35.9214 56.4003 36.2414L30.4678 62.1739C29.8891 62.7529 29.202 63.2121 28.4458 63.5254C27.6896 63.8387 26.8791 64 26.0605 64C25.242 64 24.4314 63.8387 23.6752 63.5254C22.919 63.2121 22.2319 62.7529 21.6533 62.1739L1.82451 42.3452C0.656277 41.1766 0 39.5919 0 37.9395C0 36.2871 0.656277 34.7024 1.82451 33.5338L27.7882 7.5701C28.1091 7.24946 28.4962 7.00276 28.9223 6.84724L43.8843 1.37907C44.9997 0.97114 46.2086 0.890491 47.3683 1.14663C48.5281 1.40276 49.5906 1.98501 50.4305 2.82479ZM31.7078 12.465L6.2302 37.9395L26.0589 57.7682L51.5085 32.3218L56.7648 17.9737L46.0248 7.23048L31.7078 12.465ZM40.3821 23.6194C39.9282 23.1903 39.5649 22.6744 39.3137 22.1025C39.0625 21.5305 38.9286 20.914 38.9197 20.2894C38.9109 19.6647 39.0274 19.0447 39.2623 18.4658C39.4972 17.887 39.8458 17.3611 40.2874 16.9193C40.729 16.4775 41.2547 16.1286 41.8334 15.8935C42.4122 15.6583 43.0322 15.5415 43.6568 15.5501C44.2814 15.5586 44.898 15.6923 45.4701 15.9432C46.0422 16.1941 46.5582 16.5571 46.9876 17.0109C47.8131 17.8968 48.2626 19.0687 48.2412 20.2795C48.2198 21.4903 47.7293 22.6455 46.873 23.5018C46.0167 24.3581 44.8615 24.8486 43.6507 24.8699C42.4399 24.8913 41.2681 24.445 40.3821 23.6194Z" fill="#193354"/>
</svg>
