<svg width="13" height="16" viewBox="0 0 13 16" fill="none" xmlns="http://www.w3.org/2000/svg">
<path d="M3.28157 7.97197C3.39574 7.93295 3.51851 7.91265 3.64263 7.91229C3.76675 7.91193 3.8897 7.93151 4.00421 7.96988C4.11872 8.00824 4.22248 8.06462 4.30933 8.13566C4.39619 8.2067 4.46439 8.29098 4.50989 8.3835C4.5554 8.47602 4.5773 8.57492 4.57428 8.67434C4.57127 8.77376 4.54341 8.87168 4.49235 8.96233C4.44129 9.05297 4.36807 9.1345 4.27702 9.20208C4.18596 9.26966 4.07892 9.32193 3.96221 9.3558C3.3415 9.55175 2.80877 9.89285 2.43333 10.3347C2.05788 10.7766 1.85711 11.2988 1.85714 11.8333V13.1278C1.85714 13.3252 1.95497 13.5144 2.12912 13.6539C2.30326 13.7934 2.53944 13.8718 2.78571 13.8718H10.2143C10.4606 13.8718 10.6967 13.7934 10.8709 13.6539C11.045 13.5144 11.1429 13.3252 11.1429 13.1278V11.9025C11.143 11.3508 10.9338 10.8121 10.5431 10.3578C10.1524 9.90355 9.59861 9.55514 8.95514 9.35877C8.83772 9.32612 8.72966 9.27492 8.63739 9.20819C8.54513 9.14146 8.47052 9.06057 8.41799 8.97031C8.36546 8.88005 8.33608 8.78226 8.3316 8.68274C8.32712 8.58321 8.34762 8.48398 8.39189 8.39092C8.43616 8.29786 8.5033 8.21287 8.58932 8.14099C8.67535 8.0691 8.77851 8.01179 8.89269 7.97244C9.00688 7.93309 9.12976 7.91251 9.25405 7.91192C9.37835 7.91133 9.50153 7.93074 9.61629 7.969C10.6113 8.27268 11.4678 8.81144 12.072 9.5139C12.6763 10.2164 12.9999 11.0493 13 11.9025V13.1278C13 13.7198 12.7065 14.2875 12.1841 14.7061C11.6617 15.1247 10.9531 15.3598 10.2143 15.3598H2.78571C2.0469 15.3598 1.33834 15.1247 0.815917 14.7061C0.293494 14.2875 0 13.7198 0 13.1278L0 11.8333C0.000127772 11.0001 0.313186 10.1863 0.89845 9.49763C1.48371 8.80897 2.31409 8.27737 3.28157 7.97197ZM6.5 0.47998C7.48509 0.47998 8.42983 0.793519 9.1264 1.35162C9.82296 1.90972 10.2143 2.66667 10.2143 3.45595V4.94393C10.2143 5.7332 9.82296 6.49015 9.1264 7.04825C8.42983 7.60636 7.48509 7.91989 6.5 7.91989C5.51491 7.91989 4.57017 7.60636 3.8736 7.04825C3.17704 6.49015 2.78571 5.7332 2.78571 4.94393V3.45595C2.78571 2.66667 3.17704 1.90972 3.8736 1.35162C4.57017 0.793519 5.51491 0.47998 6.5 0.47998ZM6.5 1.96796C6.00745 1.96796 5.53508 2.12473 5.1868 2.40378C4.83852 2.68283 4.64286 3.06131 4.64286 3.45595V4.94393C4.64286 5.33857 4.83852 5.71704 5.1868 5.99609C5.53508 6.27514 6.00745 6.43191 6.5 6.43191C6.99254 6.43191 7.46492 6.27514 7.8132 5.99609C8.16148 5.71704 8.35714 5.33857 8.35714 4.94393V3.45595C8.35714 3.06131 8.16148 2.68283 7.8132 2.40378C7.46492 2.12473 6.99254 1.96796 6.5 1.96796Z" fill="#FFFAFA"/>
</svg>
