<svg width="238" height="54" viewBox="0 0 238 54" fill="none" xmlns="http://www.w3.org/2000/svg">
<path d="M88.0233 48.627C93.5547 48.627 98.8595 46.3627 102.771 42.3321C106.682 38.3016 108.879 32.835 108.879 27.135C108.879 21.435 106.682 15.9684 102.771 11.9379C98.8595 7.90735 93.5547 5.64302 88.0233 5.64302C82.492 5.64302 77.1872 7.90735 73.2759 11.9379C69.3647 15.9684 67.1674 21.435 67.1674 27.135C67.1674 32.835 69.3647 38.3016 73.2759 42.3321C77.1872 46.3627 82.492 48.627 88.0233 48.627ZM88.0233 54C73.6249 54 61.9534 41.9725 61.9534 27.135C61.9534 12.2975 73.6249 0.27002 88.0233 0.27002C102.422 0.27002 114.093 12.2975 114.093 27.135C114.093 41.9725 102.422 54 88.0233 54Z" fill="#8F8C8C"/>
<path d="M101.058 18.9331C100.099 19.3629 99.0692 19.6584 97.9873 19.7874C99.0927 19.1157 99.9374 18.0519 100.339 16.7865C99.3013 17.4071 98.1594 17.8611 96.9393 18.1029C96.4358 17.5591 95.8301 17.1267 95.1592 16.832C94.4882 16.5373 93.766 16.3866 93.0366 16.3889C90.0829 16.3889 87.6897 18.8202 87.6897 21.8157C87.6897 22.2401 87.7366 22.6539 87.8279 23.0515C85.7092 22.9478 83.6348 22.3902 81.737 21.4142C79.8392 20.4382 78.1596 19.0652 76.8055 17.3829C76.3299 18.208 76.0795 19.1501 76.0807 20.1097C76.0807 21.9903 77.0271 23.6559 78.4609 24.6257C77.6122 24.5983 76.7817 24.3655 76.0364 23.9461V24.0132C76.0445 25.2744 76.4765 26.4938 77.2589 27.4636C78.0413 28.4335 79.1257 29.0939 80.3275 29.3325C79.5385 29.5475 78.713 29.5787 77.9108 29.4238C78.2605 30.5088 78.9293 31.4547 79.8244 32.1301C80.7195 32.8056 81.7965 33.1771 82.9059 33.193C81.0026 34.7043 78.6659 35.5208 76.2632 35.5141C75.8331 35.5141 75.4081 35.4873 74.9884 35.4389C77.4402 37.0381 80.2831 37.8852 83.1848 37.8809C93.0236 37.8809 98.4018 29.6119 98.4018 22.4389L98.3836 21.7351C99.4324 20.9756 100.339 20.0262 101.058 18.9331Z" fill="#8F8C8C"/>
<path d="M36.6063 0.27002H15.531C11.4129 0.275007 7.46499 1.96317 4.55334 4.96412C1.64169 7.96507 0.00414702 12.0337 0 16.2773L0 37.9954C0.00483941 42.239 1.64305 46.3074 4.55519 49.3078C7.46733 52.3082 11.4156 53.9957 15.5336 54H36.6089C40.727 53.995 44.6749 52.3068 47.5866 49.3059C50.4982 46.3049 52.1358 42.2363 52.1399 37.9927V16.2746C52.1351 12.031 50.4969 7.96267 47.5847 4.96222C44.6726 1.96178 40.7244 0.274293 36.6063 0.27002ZM46.8959 37.9927C46.8959 39.3851 46.6298 40.764 46.1127 42.0504C45.5956 43.3369 44.8376 44.5058 43.8822 45.4904C42.9267 46.475 41.7924 47.2561 40.544 47.7889C39.2956 48.3218 37.9576 48.5961 36.6063 48.5961H15.531C12.8025 48.5953 10.186 47.4779 8.25685 45.4894C6.32774 43.501 5.24403 40.8044 5.24403 37.9927V16.2746C5.24472 13.4629 6.3291 10.7666 8.25869 8.77867C10.1883 6.79073 12.8051 5.67397 15.5336 5.67397H36.6089C39.3375 5.67468 41.954 6.79213 43.8831 8.78057C45.8122 10.769 46.8959 13.4656 46.8959 16.2773V37.9927Z" fill="#8F8C8C"/>
<path d="M26.0689 13.239C22.4948 13.2447 19.0687 14.7105 16.5417 17.3151C14.0146 19.9197 12.5928 23.4506 12.588 27.1337C12.5922 30.8178 14.014 34.3497 16.5417 36.955C19.0693 39.5603 22.4965 41.0261 26.0715 41.0311C29.647 41.0269 33.0748 39.5613 35.6031 36.956C38.1313 34.3506 39.5535 30.8182 39.5577 27.1337C39.5521 23.4497 38.129 19.9183 35.6003 17.314C33.0717 14.7098 29.6439 13.2453 26.0689 13.2417V13.239ZM26.0689 35.6272C23.8837 35.6272 21.7879 34.7326 20.2427 33.1403C18.6975 31.548 17.8294 29.3883 17.8294 27.1364C17.8294 24.8845 18.6975 22.7249 20.2427 21.1325C21.7879 19.5402 23.8837 18.6457 26.0689 18.6457C28.2542 18.6457 30.3499 19.5402 31.8951 21.1325C33.4403 22.7249 34.3084 24.8845 34.3084 27.1364C34.3084 29.3883 33.4403 31.548 31.8951 33.1403C30.3499 34.7326 28.2542 35.6272 26.0689 35.6272Z" fill="#8F8C8C"/>
<path d="M39.5809 16.6729C41.365 16.6729 42.8114 15.1825 42.8114 13.3439C42.8114 11.5053 41.365 10.0149 39.5809 10.0149C37.7967 10.0149 36.3503 11.5053 36.3503 13.3439C36.3503 15.1825 37.7967 16.6729 39.5809 16.6729Z" fill="#8F8C8C"/>
<path d="M146.574 18.9066V22.6059H143.947V27.1273H146.574V40.5679H151.976V27.1273H155.6C155.6 27.1273 155.941 24.9593 156.106 22.5871H151.997V19.4977C151.997 19.0329 152.586 18.4123 153.17 18.4123H156.111V13.7029H152.109C146.441 13.7029 146.574 18.2296 146.574 18.9066Z" fill="#8F8C8C"/>
<path d="M134.334 5.64302C132.952 5.64302 131.625 6.2091 130.648 7.21673C129.67 8.22436 129.12 9.59101 129.12 11.016V43.254C129.12 44.679 129.67 46.0457 130.648 47.0533C131.625 48.0609 132.952 48.627 134.334 48.627H165.618C167.001 48.627 168.327 48.0609 169.305 47.0533C170.283 46.0457 170.832 44.679 170.832 43.254V11.016C170.832 9.59101 170.283 8.22436 169.305 7.21673C168.327 6.2091 167.001 5.64302 165.618 5.64302H134.334ZM134.334 0.27002H165.618C168.384 0.27002 171.037 1.40218 172.992 3.41745C174.948 5.43271 176.046 8.166 176.046 11.016V43.254C176.046 46.104 174.948 48.8373 172.992 50.8526C171.037 52.8678 168.384 54 165.618 54H134.334C131.569 54 128.916 52.8678 126.961 50.8526C125.005 48.8373 123.906 46.104 123.906 43.254V11.016C123.906 8.166 125.005 5.43271 126.961 3.41745C128.916 1.40218 131.569 0.27002 134.334 0.27002Z" fill="#8F8C8C"/>
<path d="M211.93 48.627C217.461 48.627 222.766 46.3627 226.677 42.3321C230.589 38.3016 232.786 32.835 232.786 27.135C232.786 21.435 230.589 15.9684 226.677 11.9379C222.766 7.90735 217.461 5.64302 211.93 5.64302C206.399 5.64302 201.094 7.90735 197.183 11.9379C193.271 15.9684 191.074 21.435 191.074 27.135C191.074 32.835 193.271 38.3016 197.183 42.3321C201.094 46.3627 206.399 48.627 211.93 48.627ZM211.93 54C197.532 54 185.86 41.9725 185.86 27.135C185.86 12.2975 197.532 0.27002 211.93 0.27002C226.329 0.27002 238 12.2975 238 27.135C238 41.9725 226.329 54 211.93 54Z" fill="#909598"/>
<path d="M219.55 17.8025H204.31C201.32 17.8025 198.895 20.2741 198.895 23.3206V31.0845C198.895 34.1337 201.32 36.6026 204.31 36.6026H219.55C222.541 36.6026 224.965 34.131 224.965 31.0845V23.3206C224.965 20.2714 222.541 17.8025 219.55 17.8025ZM215.89 27.5813L208.76 31.0469C208.716 31.0682 208.668 31.0777 208.62 31.0747C208.572 31.0717 208.525 31.0562 208.485 31.0297C208.444 31.0032 208.41 30.9665 208.387 30.923C208.363 30.8795 208.351 30.8307 208.351 30.781V23.6349C208.351 23.5845 208.364 23.5351 208.388 23.4914C208.412 23.4476 208.447 23.4109 208.489 23.3848C208.531 23.3587 208.578 23.344 208.627 23.3422C208.676 23.3403 208.724 23.3514 208.768 23.3743L215.895 27.0548C216.107 27.1676 216.104 27.4766 215.89 27.5813Z" fill="#8F8C8C"/>
</svg>
