<svg width="25" height="25" viewBox="0 0 25 25" fill="none" xmlns="http://www.w3.org/2000/svg">
<g clip-path="url(#clip0_325_48)">
<path d="M21.7839 10.1729C21.7839 17.1729 12.7839 23.1729 12.7839 23.1729C12.7839 23.1729 3.78394 17.1729 3.78394 10.1729C3.78394 7.78596 4.73215 5.49678 6.41997 3.80895C8.1078 2.12112 10.397 1.17291 12.7839 1.17291C15.1709 1.17291 17.4601 2.12112 19.1479 3.80895C20.8357 5.49678 21.7839 7.78596 21.7839 10.1729Z" stroke="#090A0A" stroke-width="1.5" stroke-linecap="round" stroke-linejoin="round"/>
<path d="M12.7839 13.1729C14.4408 13.1729 15.7839 11.8298 15.7839 10.1729C15.7839 8.51606 14.4408 7.17291 12.7839 7.17291C11.1271 7.17291 9.78394 8.51606 9.78394 10.1729C9.78394 11.8298 11.1271 13.1729 12.7839 13.1729Z" stroke="#090A0A" stroke-width="1.5" stroke-linecap="round" stroke-linejoin="round"/>
</g>
<defs>
<clipPath id="clip0_325_48">
<rect width="24" height="24" fill="white" transform="translate(0.783936 0.172913)"/>
</clipPath>
</defs>
</svg>
