<svg width="19" height="22" viewBox="0 0 19 22" fill="none" xmlns="http://www.w3.org/2000/svg">
<path d="M4.79614 10.8218C4.963 10.7654 5.14243 10.7361 5.32384 10.7356C5.50525 10.735 5.68494 10.7633 5.85231 10.8187C6.01967 10.8742 6.17131 10.9556 6.29825 11.0582C6.4252 11.1608 6.52487 11.2826 6.59138 11.4162C6.65789 11.5498 6.68989 11.6927 6.68549 11.8363C6.68109 11.9799 6.64037 12.1213 6.56575 12.2523C6.49112 12.3832 6.38411 12.501 6.25102 12.5986C6.11794 12.6962 5.96149 12.7717 5.79093 12.8206C4.88373 13.1037 4.10512 13.5964 3.5564 14.2346C3.00768 14.8729 2.71424 15.6271 2.71429 16.3992V18.2691C2.71429 18.5541 2.85727 18.8275 3.11178 19.029C3.3663 19.2306 3.71149 19.3438 4.07143 19.3438H14.9286C15.2885 19.3438 15.6337 19.2306 15.8882 19.029C16.1427 18.8275 16.2857 18.5541 16.2857 18.2691V16.4992C16.2859 15.7023 15.9802 14.9242 15.4091 14.268C14.8381 13.6118 14.0287 13.1086 13.0883 12.8249C12.9167 12.7778 12.7587 12.7038 12.6239 12.6074C12.489 12.511 12.38 12.3942 12.3032 12.2638C12.2264 12.1334 12.1835 11.9922 12.177 11.8484C12.1704 11.7047 12.2004 11.5613 12.2651 11.4269C12.3298 11.2925 12.4279 11.1697 12.5536 11.0659C12.6794 10.9621 12.8301 10.8793 12.997 10.8224C13.1639 10.7656 13.3435 10.7359 13.5252 10.735C13.7068 10.7342 13.8868 10.7622 14.0546 10.8175C15.5089 11.2561 16.7606 12.0343 17.6437 13.049C18.5269 14.0636 18.9999 15.2669 19 16.4992V18.2691C19 19.1242 18.571 19.9442 17.8075 20.5488C17.044 21.1534 16.0084 21.4931 14.9286 21.4931H4.07143C2.99162 21.4931 1.95603 21.1534 1.19249 20.5488C0.428953 19.9442 0 19.1242 0 18.2691L0 16.3992C0.000186744 15.1958 0.457733 14.0202 1.31312 13.0255C2.1685 12.0308 3.38214 11.2629 4.79614 10.8218ZM9.5 0C10.9397 0 12.3205 0.452889 13.3386 1.25904C14.3566 2.06518 14.9286 3.15855 14.9286 4.29862V6.44793C14.9286 7.58799 14.3566 8.68136 13.3386 9.48751C12.3205 10.2937 10.9397 10.7465 9.5 10.7465C8.06025 10.7465 6.67947 10.2937 5.66142 9.48751C4.64337 8.68136 4.07143 7.58799 4.07143 6.44793V4.29862C4.07143 3.15855 4.64337 2.06518 5.66142 1.25904C6.67947 0.452889 8.06025 0 9.5 0ZM9.5 2.14931C8.78013 2.14931 8.08974 2.37575 7.58071 2.77883C7.07168 3.1819 6.78571 3.72859 6.78571 4.29862V6.44793C6.78571 7.01796 7.07168 7.56464 7.58071 7.96772C8.08974 8.37079 8.78013 8.59723 9.5 8.59723C10.2199 8.59723 10.9103 8.37079 11.4193 7.96772C11.9283 7.56464 12.2143 7.01796 12.2143 6.44793V4.29862C12.2143 3.72859 11.9283 3.1819 11.4193 2.77883C10.9103 2.37575 10.2199 2.14931 9.5 2.14931Z" fill="#FFFAFA"/>
</svg>
