<svg width="96" height="80" viewBox="0 0 96 80" fill="none" xmlns="http://www.w3.org/2000/svg">
<g clip-path="url(#clip0_123_1112)">
<path d="M32 33.3334V26.6667H36V13.3334H32V10L48 3.33337L64 10V13.3334H60V26.6667H64V33.3334H58.968L33.76 45.4634L36 33.3334H32ZM52 26.6667V13.3334H44V26.6667H52ZM28 76.6667L28.148 75.86L64.612 58.3167L66.696 69.6167L52.04 76.6667H28ZM32.2 53.91L61.22 39.95L63.308 51.2467L29.708 67.4134L32.2 53.9134V53.91Z" fill="#193354"/>
<mask id="mask0_123_1112" style="mask-type:luminance" maskUnits="userSpaceOnUse" x="28" y="3" width="39" height="74">
<path d="M32 33.3334V26.6667H36V13.3334H32V10L48 3.33337L64 10V13.3334H60V26.6667H64V33.3334H58.968L33.76 45.4634L36 33.3334H32ZM52 26.6667V13.3334H44V26.6667H52ZM28 76.6667L28.148 75.86L64.612 58.3167L66.696 69.6167L52.04 76.6667H28ZM32.2 53.91L61.22 39.95L63.308 51.2467L29.708 67.4134L32.2 53.9134V53.91Z" fill="#193354"/>
</mask>
<g mask="url(#mask0_123_1112)">
<path d="M96 0H0V80H96V0Z" fill="#193354"/>
</g>
</g>
<defs>
<clipPath id="clip0_123_1112">
<rect width="96" height="80" fill="white"/>
</clipPath>
</defs>
</svg>
